<svg width="188" height="80" viewBox="0 0 188 80" fill="none" xmlns="http://www.w3.org/2000/svg">
<path d="M3.54 32C3.54 30.84 3.72 30.06 4.08 29.66C4.44 29.22 5.3 28.96 6.66 28.88C9.06 28.72 11.46 28.7 13.86 28.82C16.26 28.94 18.56 29.26 20.76 29.78C22.96 30.3 25 31.06 26.88 32.06C28.76 33.06 30.4 34.36 31.8 35.96C33.2 37.56 34.3 39.5 35.1 41.78C35.9 44.06 36.3 46.74 36.3 49.82C36.3 57.38 33.84 63.1 28.92 66.98C24 70.82 16.56 72.74 6.6 72.74C4.88 72.74 4.02 71.78 4.02 69.86L3.54 32ZM13.92 62.84C18 62.28 21.06 60.94 23.1 58.82C25.14 56.66 26.16 53.64 26.16 49.76C26.16 47.96 25.88 46.32 25.32 44.84C24.76 43.36 23.94 42.1 22.86 41.06C21.78 40.06 20.44 39.3 18.84 38.78C17.28 38.22 15.48 37.98 13.44 38.06L13.92 62.84Z" fill="#B56FCF"/>
<path d="M70.1034 50.78C70.1034 48.62 69.8634 46.72 69.3834 45.08C68.9034 43.44 68.2634 42.06 67.4634 40.94C66.6234 39.86 65.6434 39.06 64.5234 38.54C63.4034 37.98 62.2034 37.7 60.9234 37.7C59.6434 37.7 58.4434 37.98 57.3234 38.54C56.2034 39.06 55.2434 39.86 54.4434 40.94C53.6034 42.06 52.9434 43.44 52.4634 45.08C51.9834 46.72 51.7434 48.62 51.7434 50.78C51.7434 52.94 51.9834 54.84 52.4634 56.48C52.9434 58.12 53.6034 59.48 54.4434 60.56C55.2434 61.64 56.2034 62.46 57.3234 63.02C58.4434 63.54 59.6434 63.8 60.9234 63.8C62.2034 63.8 63.4034 63.54 64.5234 63.02C65.6434 62.46 66.6234 61.64 67.4634 60.56C68.2634 59.48 68.9034 58.12 69.3834 56.48C69.8634 54.84 70.1034 52.94 70.1034 50.78ZM80.6034 50.78C80.6034 54.26 80.0634 57.4 78.9834 60.2C77.9434 63 76.5234 65.38 74.7234 67.34C72.9234 69.3 70.8234 70.8 68.4234 71.84C66.0634 72.88 63.5634 73.4 60.9234 73.4C58.2834 73.4 55.7634 72.88 53.3634 71.84C51.0034 70.8 48.9234 69.3 47.1234 67.34C45.3234 65.38 43.8834 63 42.8034 60.2C41.7634 57.4 41.2434 54.24 41.2434 50.72C41.2434 47.24 41.7634 44.1 42.8034 41.3C43.8834 38.5 45.3234 36.12 47.1234 34.16C48.9234 32.2 51.0034 30.7 53.3634 29.66C55.7634 28.62 58.2834 28.1 60.9234 28.1C63.5634 28.1 66.0634 28.64 68.4234 29.72C70.8234 30.76 72.9234 32.26 74.7234 34.22C76.5234 36.18 77.9434 38.56 78.9834 41.36C80.0634 44.16 80.6034 47.3 80.6034 50.78Z" fill="#FA7373"/>
<path d="M86.3775 31.88C86.3375 30.96 86.4575 30.34 86.7375 30.02C87.0575 29.66 87.6575 29.38 88.5375 29.18C89.4175 29.02 90.2375 28.88 90.9975 28.76C91.7575 28.6 92.4975 28.48 93.2175 28.4C93.8975 28.32 94.5775 28.26 95.2575 28.22C95.9375 28.18 96.6575 28.14 97.4175 28.1C99.5775 28.06 101.698 28.2 103.778 28.52C105.898 28.8 107.798 29.38 109.478 30.26C111.158 31.14 112.538 32.34 113.618 33.86C114.698 35.34 115.318 37.24 115.478 39.56C115.598 41.12 115.418 42.66 114.938 44.18C114.458 45.66 113.518 46.92 112.118 47.96C114.038 48.88 115.538 50.36 116.618 52.4C117.698 54.44 118.278 56.62 118.358 58.94C118.398 61.02 118.058 62.82 117.337 64.34C116.618 65.86 115.598 67.12 114.277 68.12C112.958 69.16 111.398 70 109.598 70.64C107.798 71.24 105.858 71.7 103.778 72.02C101.698 72.34 99.5375 72.54 97.2975 72.62C95.0575 72.74 92.8375 72.78 90.6375 72.74C90.1975 72.74 89.7775 72.72 89.3775 72.68C89.0175 72.64 88.7175 72.52 88.4775 72.32C88.1975 72.12 87.9575 71.82 87.7575 71.42C87.5975 71.06 87.5175 70.52 87.5175 69.8L86.3775 31.88ZM97.1775 64.04C98.7775 64.04 100.258 63.96 101.618 63.8C103.018 63.64 104.238 63.36 105.278 62.96C106.278 62.56 107.038 62.04 107.558 61.4C108.118 60.72 108.378 59.9 108.338 58.94C108.258 57.7 107.778 56.78 106.898 56.18C106.018 55.54 104.978 55.1 103.778 54.86C102.578 54.62 101.338 54.54 100.058 54.62C98.8175 54.66 97.7575 54.72 96.8775 54.8L97.1775 64.04ZM96.5175 46.58C97.5575 46.58 98.5975 46.54 99.6375 46.46C100.718 46.38 101.678 46.14 102.518 45.74C103.358 45.38 104.038 44.82 104.558 44.06C105.078 43.3 105.338 42.24 105.338 40.88C105.338 39.8 105.058 38.94 104.498 38.3C103.938 37.62 103.218 37.12 102.338 36.8C101.458 36.52 100.478 36.38 99.3975 36.38C98.3175 36.34 97.2575 36.38 96.2175 36.5L96.5175 46.58Z" fill="#6FA6F4"/>
<path d="M152.565 29.12C152.965 28.56 153.305 28.22 153.585 28.1C153.865 27.94 154.345 28.02 155.025 28.34L161.265 31.04C161.985 31.36 162.405 31.8 162.525 32.36C162.685 32.88 162.525 33.48 162.045 34.16L149.325 51.68C148.885 52.32 148.525 52.92 148.245 53.48C148.005 54.04 147.885 54.8 147.885 55.76V69.62C147.885 70.82 147.685 71.64 147.285 72.08C146.885 72.56 146.165 72.8 145.125 72.8H140.085C139.045 72.8 138.325 72.56 137.925 72.08C137.565 71.64 137.385 70.82 137.385 69.62L137.205 55.76C137.205 54.8 137.065 54.04 136.785 53.48C136.545 52.92 136.205 52.32 135.765 51.68L123.045 34.16C122.565 33.48 122.385 32.88 122.505 32.36C122.665 31.8 123.105 31.36 123.825 31.04L130.065 28.34C130.745 28.02 131.225 27.94 131.505 28.1C131.785 28.22 132.125 28.56 132.525 29.12L142.485 43.28L152.565 29.12Z" fill="#FACC57"/>
<path d="M169.273 68.72C169.273 67.32 169.733 66.2 170.653 65.36C171.613 64.48 172.793 64.04 174.193 64.04C175.513 64.04 176.653 64.48 177.613 65.36C178.573 66.2 179.053 67.32 179.053 68.72C179.053 70.08 178.573 71.18 177.613 72.02C176.653 72.9 175.513 73.34 174.193 73.34C172.793 73.34 171.613 72.9 170.653 72.02C169.733 71.18 169.273 70.08 169.273 68.72ZM169.273 31.4C169.273 30.36 169.433 29.66 169.753 29.3C170.113 28.9 170.713 28.7 171.553 28.7H177.013C177.893 28.7 178.493 28.9 178.813 29.3C179.133 29.66 179.293 30.36 179.293 31.4V57.86C179.293 58.9 179.133 59.62 178.813 60.02C178.493 60.38 177.893 60.56 177.013 60.56H171.553C170.713 60.56 170.113 60.38 169.753 60.02C169.433 59.62 169.273 58.9 169.273 57.86V31.4Z" fill="#EA83A8"/>
<path d="M23.708 4.08C23.708 3.96 23.716 3.86 23.732 3.78C23.748 3.692 23.776 3.624 23.816 3.576C23.864 3.528 23.928 3.492 24.008 3.468C24.096 3.444 24.212 3.428 24.356 3.42C24.86 3.388 25.36 3.388 25.856 3.42C26.352 3.452 26.824 3.528 27.272 3.648C27.728 3.768 28.148 3.936 28.532 4.152C28.924 4.36 29.26 4.632 29.54 4.968C29.828 5.296 30.052 5.692 30.212 6.156C30.372 6.612 30.452 7.144 30.452 7.752C30.452 9.264 29.952 10.436 28.952 11.268C27.96 12.092 26.424 12.504 24.344 12.504C24.144 12.504 24.004 12.464 23.924 12.384C23.852 12.304 23.812 12.144 23.804 11.904L23.708 4.08ZM25.28 11.04C25.712 11.032 26.148 10.968 26.588 10.848C27.028 10.72 27.428 10.524 27.788 10.26C28.148 9.996 28.44 9.66 28.664 9.252C28.888 8.836 29 8.332 29 7.74C29 7.204 28.912 6.748 28.736 6.372C28.56 5.988 28.308 5.68 27.98 5.448C27.652 5.216 27.252 5.048 26.78 4.944C26.316 4.84 25.792 4.796 25.208 4.812L25.28 11.04Z" fill="#B56FCF"/>
<path d="M36.2722 8.484C36.2082 8.004 36.0282 7.644 35.7322 7.404C35.4442 7.164 35.0802 7.044 34.6402 7.044C34.1522 7.044 33.7522 7.196 33.4402 7.5C33.1282 7.804 32.9562 8.216 32.9242 8.736L36.2722 8.484ZM34.6042 5.676C35.1162 5.676 35.5642 5.76 35.9482 5.928C36.3402 6.096 36.6722 6.336 36.9442 6.648C37.2162 6.952 37.4242 7.324 37.5682 7.764C37.7202 8.204 37.8082 8.696 37.8322 9.24C37.8402 9.4 37.8162 9.512 37.7602 9.576C37.7042 9.632 37.6002 9.668 37.4482 9.684L33.0322 10.032C33.0882 10.28 33.1922 10.484 33.3442 10.644C33.5042 10.804 33.6922 10.932 33.9082 11.028C34.1242 11.116 34.3602 11.172 34.6162 11.196C34.8802 11.22 35.1402 11.22 35.3962 11.196C35.6522 11.172 35.9002 11.132 36.1402 11.076C36.3802 11.012 36.5882 10.936 36.7642 10.848C36.8762 10.792 36.9522 10.784 36.9922 10.824C37.0322 10.864 37.0602 10.94 37.0762 11.052L37.1602 11.856C37.1762 11.968 37.1642 12.044 37.1242 12.084C37.0922 12.124 37.0202 12.164 36.9082 12.204C36.5642 12.34 36.2042 12.436 35.8282 12.492C35.4522 12.556 35.1162 12.588 34.8202 12.588C34.2762 12.588 33.7922 12.5 33.3682 12.324C32.9522 12.148 32.6002 11.908 32.3122 11.604C32.0242 11.292 31.8042 10.924 31.6522 10.5C31.5082 10.068 31.4362 9.6 31.4362 9.096C31.4362 8.656 31.5042 8.232 31.6402 7.824C31.7842 7.416 31.9882 7.052 32.2522 6.732C32.5242 6.412 32.8562 6.156 33.2482 5.964C33.6402 5.772 34.0922 5.676 34.6042 5.676ZM40.6239 12.528C40.4879 12.528 40.3879 12.508 40.3239 12.468C40.2679 12.436 40.2079 12.332 40.1439 12.156L38.0199 6.408C37.9719 6.264 37.9559 6.164 37.9719 6.108C37.9959 6.044 38.0719 5.992 38.1999 5.952L38.9319 5.676C39.0839 5.62 39.1879 5.604 39.2439 5.628C39.2999 5.644 39.3479 5.716 39.3879 5.844L41.2119 10.86L43.0239 5.868C43.0639 5.74 43.1119 5.668 43.1679 5.652C43.2239 5.628 43.3279 5.644 43.4799 5.7L44.2359 5.952C44.3639 5.992 44.4359 6.044 44.4519 6.108C44.4759 6.164 44.4639 6.264 44.4159 6.408L42.2919 12.156C42.2279 12.332 42.1639 12.436 42.0999 12.468C42.0439 12.508 41.9479 12.528 41.8119 12.528H40.6239ZM49.6902 8.484C49.6262 8.004 49.4462 7.644 49.1502 7.404C48.8622 7.164 48.4982 7.044 48.0582 7.044C47.5702 7.044 47.1702 7.196 46.8582 7.5C46.5462 7.804 46.3742 8.216 46.3422 8.736L49.6902 8.484ZM48.0222 5.676C48.5342 5.676 48.9822 5.76 49.3662 5.928C49.7582 6.096 50.0902 6.336 50.3622 6.648C50.6342 6.952 50.8422 7.324 50.9862 7.764C51.1382 8.204 51.2262 8.696 51.2502 9.24C51.2582 9.4 51.2342 9.512 51.1782 9.576C51.1222 9.632 51.0182 9.668 50.8662 9.684L46.4502 10.032C46.5062 10.28 46.6102 10.484 46.7622 10.644C46.9222 10.804 47.1102 10.932 47.3262 11.028C47.5422 11.116 47.7782 11.172 48.0342 11.196C48.2982 11.22 48.5582 11.22 48.8142 11.196C49.0702 11.172 49.3182 11.132 49.5582 11.076C49.7982 11.012 50.0062 10.936 50.1822 10.848C50.2942 10.792 50.3702 10.784 50.4102 10.824C50.4502 10.864 50.4782 10.94 50.4942 11.052L50.5782 11.856C50.5942 11.968 50.5822 12.044 50.5422 12.084C50.5102 12.124 50.4382 12.164 50.3262 12.204C49.9822 12.34 49.6222 12.436 49.2462 12.492C48.8702 12.556 48.5342 12.588 48.2382 12.588C47.6942 12.588 47.2102 12.5 46.7862 12.324C46.3702 12.148 46.0182 11.908 45.7302 11.604C45.4422 11.292 45.2222 10.924 45.0702 10.5C44.9262 10.068 44.8542 9.6 44.8542 9.096C44.8542 8.656 44.9222 8.232 45.0582 7.824C45.2022 7.416 45.4062 7.052 45.6702 6.732C45.9422 6.412 46.2742 6.156 46.6662 5.964C47.0582 5.772 47.5102 5.676 48.0222 5.676ZM52.011 3.72C52.011 3.592 52.035 3.504 52.083 3.456C52.131 3.408 52.223 3.384 52.359 3.384H53.175C53.311 3.384 53.403 3.408 53.451 3.456C53.499 3.504 53.523 3.592 53.523 3.72V12.18C53.523 12.308 53.499 12.396 53.451 12.444C53.403 12.492 53.311 12.516 53.175 12.516H52.359C52.223 12.516 52.131 12.492 52.083 12.444C52.035 12.396 52.011 12.308 52.011 12.18V3.72ZM66.7981 8.856C66.7981 8.496 66.7261 8.2 66.5821 7.968C66.4381 7.728 66.2341 7.536 65.9701 7.392C65.7061 7.248 65.3861 7.148 65.0101 7.092C64.6421 7.028 64.2301 6.996 63.7741 6.996V11.004C64.2301 10.988 64.6421 10.936 65.0101 10.848C65.3861 10.752 65.7061 10.62 65.9701 10.452C66.2341 10.276 66.4381 10.056 66.5821 9.792C66.7261 9.528 66.7981 9.216 66.7981 8.856ZM62.2621 5.964C62.2621 5.836 62.2861 5.748 62.3341 5.7C62.3821 5.652 62.4741 5.628 62.6101 5.628H63.7741C64.3181 5.628 64.8581 5.668 65.3941 5.748C65.9381 5.828 66.4261 5.988 66.8581 6.228C67.2901 6.46 67.6381 6.796 67.9021 7.236C68.1741 7.668 68.3101 8.24 68.3101 8.952C68.3101 9.552 68.1781 10.072 67.9141 10.512C67.6581 10.944 67.3181 11.3 66.8941 11.58C66.4701 11.86 65.9861 12.068 65.4421 12.204C64.8981 12.34 64.3421 12.404 63.7741 12.396V14.424C63.7741 14.552 63.7501 14.64 63.7021 14.688C63.6541 14.736 63.5621 14.76 63.4261 14.76H62.6101C62.4741 14.76 62.3821 14.736 62.3341 14.688C62.2861 14.64 62.2621 14.552 62.2621 14.424V5.964ZM74.1003 8.484C74.0363 8.004 73.8563 7.644 73.5603 7.404C73.2723 7.164 72.9083 7.044 72.4683 7.044C71.9803 7.044 71.5803 7.196 71.2683 7.5C70.9563 7.804 70.7843 8.216 70.7523 8.736L74.1003 8.484ZM72.4323 5.676C72.9443 5.676 73.3923 5.76 73.7763 5.928C74.1683 6.096 74.5003 6.336 74.7723 6.648C75.0443 6.952 75.2523 7.324 75.3963 7.764C75.5483 8.204 75.6363 8.696 75.6603 9.24C75.6683 9.4 75.6443 9.512 75.5883 9.576C75.5323 9.632 75.4283 9.668 75.2763 9.684L70.8603 10.032C70.9163 10.28 71.0203 10.484 71.1723 10.644C71.3323 10.804 71.5203 10.932 71.7363 11.028C71.9523 11.116 72.1883 11.172 72.4443 11.196C72.7083 11.22 72.9683 11.22 73.2243 11.196C73.4803 11.172 73.7283 11.132 73.9683 11.076C74.2083 11.012 74.4163 10.936 74.5923 10.848C74.7043 10.792 74.7803 10.784 74.8203 10.824C74.8603 10.864 74.8883 10.94 74.9043 11.052L74.9883 11.856C75.0043 11.968 74.9923 12.044 74.9523 12.084C74.9203 12.124 74.8483 12.164 74.7363 12.204C74.3923 12.34 74.0323 12.436 73.6563 12.492C73.2803 12.556 72.9443 12.588 72.6483 12.588C72.1043 12.588 71.6203 12.5 71.1963 12.324C70.7803 12.148 70.4283 11.908 70.1403 11.604C69.8523 11.292 69.6323 10.924 69.4803 10.5C69.3363 10.068 69.2643 9.6 69.2643 9.096C69.2643 8.656 69.3323 8.232 69.4683 7.824C69.6123 7.416 69.8163 7.052 70.0803 6.732C70.3523 6.412 70.6843 6.156 71.0763 5.964C71.4683 5.772 71.9203 5.676 72.4323 5.676ZM76.5473 6.552C76.5473 6.432 76.5513 6.336 76.5593 6.264C76.5673 6.184 76.5873 6.124 76.6193 6.084C76.6593 6.044 76.7113 6.012 76.7753 5.988C76.8393 5.964 76.9233 5.944 77.0273 5.928C77.3233 5.888 77.6553 5.852 78.0233 5.82C78.3993 5.788 78.7713 5.768 79.1393 5.76C79.5073 5.744 79.8513 5.736 80.1713 5.736C80.4993 5.736 80.7593 5.748 80.9513 5.772C81.0873 5.788 81.1713 5.816 81.2033 5.856C81.2353 5.888 81.2473 5.972 81.2393 6.108L81.2033 6.78C81.1953 6.948 81.1713 7.052 81.1313 7.092C81.0913 7.124 80.9833 7.136 80.8073 7.128C80.6873 7.128 80.5113 7.132 80.2793 7.14C80.0473 7.148 79.7993 7.16 79.5353 7.176C79.2793 7.184 79.0233 7.2 78.7673 7.224C78.5113 7.24 78.2993 7.26 78.1313 7.284L78.1553 12.18C78.1553 12.308 78.1313 12.396 78.0833 12.444C78.0353 12.492 77.9433 12.516 77.8073 12.516H76.9913C76.8553 12.516 76.7633 12.492 76.7153 12.444C76.6673 12.396 76.6433 12.308 76.6433 12.18L76.5473 6.552ZM97.7488 8.484C97.6848 8.004 97.5048 7.644 97.2088 7.404C96.9208 7.164 96.5568 7.044 96.1168 7.044C95.6288 7.044 95.2288 7.196 94.9168 7.5C94.6048 7.804 94.4328 8.216 94.4008 8.736L97.7488 8.484ZM96.0808 5.676C96.5928 5.676 97.0408 5.76 97.4248 5.928C97.8168 6.096 98.1488 6.336 98.4208 6.648C98.6928 6.952 98.9008 7.324 99.0448 7.764C99.1968 8.204 99.2848 8.696 99.3088 9.24C99.3168 9.4 99.2928 9.512 99.2368 9.576C99.1808 9.632 99.0768 9.668 98.9248 9.684L94.5088 10.032C94.5648 10.28 94.6688 10.484 94.8208 10.644C94.9808 10.804 95.1688 10.932 95.3848 11.028C95.6008 11.116 95.8368 11.172 96.0928 11.196C96.3568 11.22 96.6168 11.22 96.8728 11.196C97.1288 11.172 97.3768 11.132 97.6168 11.076C97.8568 11.012 98.0648 10.936 98.2408 10.848C98.3528 10.792 98.4288 10.784 98.4688 10.824C98.5087 10.864 98.5368 10.94 98.5528 11.052L98.6367 11.856C98.6528 11.968 98.6408 12.044 98.6008 12.084C98.5688 12.124 98.4968 12.164 98.3848 12.204C98.0408 12.34 97.6808 12.436 97.3048 12.492C96.9288 12.556 96.5928 12.588 96.2968 12.588C95.7528 12.588 95.2688 12.5 94.8448 12.324C94.4288 12.148 94.0768 11.908 93.7888 11.604C93.5008 11.292 93.2808 10.924 93.1288 10.5C92.9848 10.068 92.9128 9.6 92.9128 9.096C92.9128 8.656 92.9808 8.232 93.1168 7.824C93.2608 7.416 93.4648 7.052 93.7288 6.732C94.0008 6.412 94.3328 6.156 94.7248 5.964C95.1168 5.772 95.5688 5.676 96.0808 5.676ZM100.802 10.824C101.098 10.944 101.414 11.048 101.75 11.136C102.086 11.216 102.398 11.256 102.686 11.256C103.022 11.256 103.306 11.208 103.538 11.112C103.778 11.016 103.898 10.856 103.898 10.632C103.898 10.512 103.85 10.408 103.754 10.32C103.658 10.232 103.534 10.152 103.382 10.08C103.23 10.008 103.058 9.94 102.866 9.876C102.674 9.812 102.478 9.744 102.278 9.672C102.022 9.584 101.766 9.484 101.51 9.372C101.262 9.26 101.038 9.128 100.838 8.976C100.646 8.816 100.486 8.632 100.358 8.424C100.238 8.208 100.178 7.96 100.178 7.68C100.178 7.456 100.222 7.224 100.31 6.984C100.406 6.744 100.562 6.528 100.778 6.336C101.002 6.144 101.29 5.988 101.642 5.868C102.002 5.74 102.446 5.676 102.974 5.676C103.454 5.676 103.858 5.716 104.186 5.796C104.514 5.876 104.822 5.988 105.11 6.132C105.198 6.172 105.254 6.22 105.278 6.276C105.31 6.332 105.322 6.408 105.314 6.504L105.266 7.296C105.258 7.416 105.23 7.488 105.182 7.512C105.142 7.536 105.066 7.52 104.954 7.464C104.722 7.344 104.454 7.24 104.15 7.152C103.854 7.056 103.502 7.008 103.094 7.008C102.71 7.008 102.394 7.064 102.146 7.176C101.906 7.288 101.786 7.46 101.786 7.692C101.786 7.836 101.846 7.96 101.966 8.064C102.086 8.16 102.242 8.248 102.434 8.328C102.626 8.408 102.842 8.488 103.082 8.568C103.322 8.64 103.562 8.724 103.802 8.82C104.05 8.916 104.274 9.024 104.474 9.144C104.682 9.256 104.862 9.388 105.014 9.54C105.166 9.684 105.282 9.852 105.362 10.044C105.45 10.236 105.494 10.452 105.494 10.692C105.494 11.292 105.254 11.756 104.774 12.084C104.302 12.42 103.666 12.588 102.866 12.588C102.322 12.588 101.87 12.544 101.51 12.456C101.158 12.376 100.822 12.256 100.502 12.096C100.414 12.048 100.362 11.992 100.346 11.928C100.338 11.856 100.342 11.76 100.358 11.64L100.478 11.016C100.494 10.904 100.522 10.836 100.562 10.812C100.61 10.78 100.69 10.784 100.802 10.824ZM106.547 4.224C106.547 3.952 106.639 3.724 106.823 3.54C107.015 3.356 107.251 3.264 107.531 3.264C107.811 3.264 108.051 3.356 108.251 3.54C108.451 3.724 108.551 3.952 108.551 4.224C108.551 4.504 108.451 4.736 108.251 4.92C108.051 5.096 107.811 5.184 107.531 5.184C107.251 5.184 107.015 5.096 106.823 4.92C106.639 4.736 106.547 4.504 106.547 4.224ZM106.823 6.528C106.823 6.4 106.847 6.312 106.895 6.264C106.943 6.208 107.035 6.18 107.171 6.18H107.987C108.123 6.18 108.215 6.208 108.263 6.264C108.311 6.312 108.335 6.4 108.335 6.528V12.18C108.335 12.308 108.311 12.396 108.263 12.444C108.215 12.492 108.123 12.516 107.987 12.516H107.171C107.035 12.516 106.943 12.492 106.895 12.444C106.847 12.396 106.823 12.308 106.823 12.18V6.528ZM111.089 9.288C111.089 9.648 111.161 9.948 111.305 10.188C111.449 10.428 111.653 10.62 111.917 10.764C112.181 10.908 112.497 11.008 112.865 11.064C113.241 11.12 113.657 11.148 114.113 11.148V7.14C113.657 7.156 113.241 7.212 112.865 7.308C112.497 7.396 112.181 7.528 111.917 7.704C111.653 7.88 111.449 8.1 111.305 8.364C111.161 8.62 111.089 8.928 111.089 9.288ZM115.625 12.18C115.625 12.308 115.601 12.396 115.553 12.444C115.505 12.492 115.413 12.516 115.277 12.516H114.113C113.569 12.516 113.025 12.476 112.481 12.396C111.945 12.316 111.461 12.16 111.029 11.928C110.597 11.688 110.245 11.352 109.973 10.92C109.709 10.48 109.577 9.904 109.577 9.192C109.577 8.592 109.705 8.076 109.961 7.644C110.225 7.204 110.569 6.844 110.993 6.564C111.417 6.284 111.901 6.076 112.445 5.94C112.989 5.804 113.545 5.74 114.113 5.748V3.72C114.113 3.592 114.137 3.504 114.185 3.456C114.233 3.408 114.325 3.384 114.461 3.384H115.277C115.413 3.384 115.505 3.408 115.553 3.456C115.601 3.504 115.625 3.592 115.625 3.72V12.18ZM121.397 8.484C121.333 8.004 121.153 7.644 120.857 7.404C120.569 7.164 120.205 7.044 119.765 7.044C119.277 7.044 118.877 7.196 118.565 7.5C118.253 7.804 118.081 8.216 118.049 8.736L121.397 8.484ZM119.729 5.676C120.241 5.676 120.689 5.76 121.073 5.928C121.465 6.096 121.797 6.336 122.069 6.648C122.341 6.952 122.549 7.324 122.693 7.764C122.845 8.204 122.933 8.696 122.957 9.24C122.965 9.4 122.941 9.512 122.885 9.576C122.829 9.632 122.725 9.668 122.573 9.684L118.157 10.032C118.213 10.28 118.317 10.484 118.469 10.644C118.629 10.804 118.817 10.932 119.033 11.028C119.249 11.116 119.485 11.172 119.741 11.196C120.005 11.22 120.265 11.22 120.521 11.196C120.777 11.172 121.025 11.132 121.265 11.076C121.505 11.012 121.713 10.936 121.889 10.848C122.001 10.792 122.077 10.784 122.117 10.824C122.157 10.864 122.185 10.94 122.201 11.052L122.285 11.856C122.301 11.968 122.289 12.044 122.249 12.084C122.217 12.124 122.145 12.164 122.033 12.204C121.689 12.34 121.329 12.436 120.953 12.492C120.577 12.556 120.241 12.588 119.945 12.588C119.401 12.588 118.917 12.5 118.493 12.324C118.077 12.148 117.725 11.908 117.437 11.604C117.149 11.292 116.929 10.924 116.777 10.5C116.633 10.068 116.561 9.6 116.561 9.096C116.561 8.656 116.629 8.232 116.765 7.824C116.909 7.416 117.113 7.052 117.377 6.732C117.649 6.412 117.981 6.156 118.373 5.964C118.765 5.772 119.217 5.676 119.729 5.676ZM137.758 9.12C137.758 9.424 137.798 9.7 137.878 9.948C137.958 10.196 138.074 10.408 138.226 10.584C138.378 10.76 138.558 10.9 138.766 11.004C138.974 11.1 139.21 11.148 139.474 11.148C139.738 11.148 139.974 11.1 140.182 11.004C140.398 10.9 140.578 10.76 140.722 10.584C140.874 10.408 140.99 10.196 141.07 9.948C141.158 9.7 141.202 9.424 141.202 9.12C141.202 8.824 141.158 8.552 141.07 8.304C140.99 8.048 140.874 7.832 140.722 7.656C140.578 7.48 140.398 7.344 140.182 7.248C139.974 7.144 139.738 7.092 139.474 7.092C139.21 7.092 138.974 7.144 138.766 7.248C138.558 7.344 138.378 7.48 138.226 7.656C138.074 7.832 137.958 8.048 137.878 8.304C137.798 8.552 137.758 8.824 137.758 9.12ZM136.342 9.12C136.342 8.624 136.414 8.168 136.558 7.752C136.71 7.328 136.922 6.964 137.194 6.66C137.466 6.348 137.794 6.108 138.178 5.94C138.562 5.764 138.994 5.676 139.474 5.676C139.954 5.676 140.386 5.764 140.77 5.94C141.162 6.108 141.49 6.348 141.754 6.66C142.026 6.964 142.234 7.328 142.378 7.752C142.53 8.168 142.606 8.624 142.606 9.12C142.606 9.616 142.53 10.076 142.378 10.5C142.234 10.924 142.026 11.288 141.754 11.592C141.49 11.896 141.162 12.132 140.77 12.3C140.386 12.476 139.954 12.564 139.474 12.564C138.994 12.564 138.562 12.476 138.178 12.3C137.794 12.132 137.466 11.896 137.194 11.592C136.922 11.288 136.71 10.924 136.558 10.5C136.414 10.076 136.342 9.616 136.342 9.12ZM145.198 9.168C145.19 9.56 145.194 9.884 145.21 10.14C145.234 10.396 145.294 10.596 145.39 10.74C145.494 10.884 145.646 10.984 145.846 11.04C146.046 11.088 146.322 11.108 146.674 11.1L148.222 11.064L148.282 6.084C148.282 5.956 148.306 5.868 148.354 5.82C148.41 5.772 148.506 5.748 148.642 5.748H149.518C149.654 5.748 149.746 5.772 149.794 5.82C149.842 5.868 149.866 5.956 149.866 6.084L149.782 11.916C149.774 12.132 149.742 12.268 149.686 12.324C149.638 12.388 149.538 12.424 149.386 12.432C148.978 12.464 148.478 12.484 147.886 12.492C147.294 12.508 146.642 12.516 145.93 12.516C145.49 12.516 145.114 12.432 144.802 12.264C144.498 12.104 144.254 11.892 144.07 11.628C143.886 11.364 143.754 11.064 143.674 10.728C143.602 10.392 143.574 10.048 143.59 9.696L143.746 6.084C143.746 5.956 143.77 5.868 143.818 5.82C143.874 5.772 143.97 5.748 144.106 5.748H144.982C145.118 5.748 145.21 5.772 145.258 5.82C145.306 5.868 145.33 5.956 145.33 6.084L145.198 9.168Z" fill="#535355"/>
<path d="M56.1959 9.12C56.1959 9.424 56.2359 9.7 56.3159 9.948C56.3959 10.196 56.5119 10.408 56.6639 10.584C56.8159 10.76 56.9959 10.9 57.2039 11.004C57.4119 11.1 57.6479 11.148 57.9119 11.148C58.1759 11.148 58.4119 11.1 58.6199 11.004C58.8359 10.9 59.0159 10.76 59.1599 10.584C59.3119 10.408 59.4279 10.196 59.5079 9.948C59.5959 9.7 59.6399 9.424 59.6399 9.12C59.6399 8.824 59.5959 8.552 59.5079 8.304C59.4279 8.048 59.3119 7.832 59.1599 7.656C59.0159 7.48 58.8359 7.344 58.6199 7.248C58.4119 7.144 58.1759 7.092 57.9119 7.092C57.6479 7.092 57.4119 7.144 57.2039 7.248C56.9959 7.344 56.8159 7.48 56.6639 7.656C56.5119 7.832 56.3959 8.048 56.3159 8.304C56.2359 8.552 56.1959 8.824 56.1959 9.12ZM54.7799 9.12C54.7799 8.624 54.8519 8.168 54.9959 7.752C55.1479 7.328 55.3599 6.964 55.6319 6.66C55.9039 6.348 56.2319 6.108 56.6159 5.94C56.9999 5.764 57.4319 5.676 57.9119 5.676C58.3919 5.676 58.8239 5.764 59.2079 5.94C59.5999 6.108 59.9279 6.348 60.1919 6.66C60.4639 6.964 60.6719 7.328 60.8159 7.752C60.9679 8.168 61.0439 8.624 61.0439 9.12C61.0439 9.616 60.9679 10.076 60.8159 10.5C60.6719 10.924 60.4639 11.288 60.1919 11.592C59.9279 11.896 59.5999 12.132 59.2079 12.3C58.8239 12.476 58.3919 12.564 57.9119 12.564C57.4319 12.564 56.9999 12.476 56.6159 12.3C56.2319 12.132 55.9039 11.896 55.6319 11.592C55.3599 11.288 55.1479 10.924 54.9959 10.5C54.8519 10.076 54.7799 9.616 54.7799 9.12Z" fill="#FA7373"/>
<path d="M85.4278 4.02C85.4198 3.828 85.4358 3.704 85.4758 3.648C85.5238 3.584 85.6318 3.532 85.7998 3.492C85.9918 3.452 86.1678 3.42 86.3278 3.396C86.4878 3.364 86.6398 3.34 86.7838 3.324C86.9358 3.308 87.0838 3.296 87.2278 3.288C87.3718 3.28 87.5238 3.272 87.6838 3.264C88.1398 3.248 88.5838 3.276 89.0158 3.348C89.4478 3.412 89.8358 3.536 90.1798 3.72C90.5238 3.896 90.8038 4.14 91.0198 4.452C91.2438 4.756 91.3758 5.14 91.4158 5.604C91.4398 5.964 91.3918 6.3 91.2718 6.612C91.1518 6.916 90.9198 7.168 90.5758 7.368C90.7998 7.448 90.9998 7.568 91.1758 7.728C91.3518 7.88 91.4998 8.06 91.6198 8.268C91.7478 8.468 91.8438 8.688 91.9078 8.928C91.9718 9.168 92.0078 9.416 92.0158 9.672C92.0238 10.096 91.9478 10.464 91.7878 10.776C91.6358 11.08 91.4198 11.336 91.1398 11.544C90.8678 11.752 90.5438 11.92 90.1678 12.048C89.7918 12.176 89.3838 12.272 88.9438 12.336C88.5118 12.408 88.0598 12.452 87.5878 12.468C87.1238 12.492 86.6598 12.504 86.1958 12.504C85.9878 12.504 85.8478 12.468 85.7758 12.396C85.7118 12.332 85.6758 12.184 85.6678 11.952L85.4278 4.02ZM87.1198 11.088C88.2798 11.088 89.1358 10.976 89.6878 10.752C90.2398 10.52 90.5078 10.16 90.4918 9.672C90.4758 9.384 90.3798 9.16 90.2038 9C90.0358 8.832 89.7998 8.708 89.4958 8.628C89.1998 8.548 88.8438 8.512 88.4278 8.52C88.0118 8.52 87.5558 8.544 87.0598 8.592L87.1198 11.088ZM86.9998 7.296C87.4558 7.288 87.8638 7.264 88.2238 7.224C88.5918 7.184 88.8998 7.112 89.1478 7.008C89.3958 6.904 89.5838 6.764 89.7118 6.588C89.8478 6.404 89.9158 6.168 89.9158 5.88C89.9158 5.352 89.6598 4.98 89.1478 4.764C88.6438 4.54 87.9078 4.488 86.9398 4.608L86.9998 7.296Z" fill="#6FA6F4"/>
<path d="M127.946 3.432C128.042 3.36 128.122 3.328 128.186 3.336C128.25 3.344 128.322 3.392 128.402 3.48L131.33 7.116L134.246 3.504C134.326 3.416 134.398 3.368 134.462 3.36C134.526 3.352 134.606 3.384 134.702 3.456L135.35 3.912C135.478 4 135.538 4.08 135.53 4.152C135.53 4.224 135.482 4.32 135.386 4.44L132.386 8.148C132.29 8.276 132.214 8.4 132.158 8.52C132.11 8.64 132.086 8.8 132.086 9V12.18C132.086 12.308 132.062 12.396 132.014 12.444C131.966 12.492 131.874 12.516 131.738 12.516H130.922C130.786 12.516 130.694 12.492 130.646 12.444C130.598 12.396 130.574 12.308 130.574 12.18V9C130.574 8.8 130.546 8.64 130.49 8.52C130.442 8.4 130.37 8.276 130.274 8.148L127.274 4.44C127.178 4.32 127.126 4.224 127.118 4.152C127.118 4.08 127.182 4 127.31 3.912L127.946 3.432Z" fill="#FACC57"/>
<path d="M151.343 11.844C151.343 11.612 151.419 11.424 151.571 11.28C151.731 11.128 151.935 11.052 152.183 11.052C152.415 11.052 152.611 11.128 152.771 11.28C152.931 11.424 153.011 11.612 153.011 11.844C153.011 12.076 152.931 12.264 152.771 12.408C152.611 12.552 152.415 12.624 152.183 12.624C151.935 12.624 151.731 12.552 151.571 12.408C151.419 12.264 151.343 12.076 151.343 11.844ZM151.451 3.72C151.451 3.592 151.475 3.504 151.523 3.456C151.571 3.408 151.663 3.384 151.799 3.384H152.615C152.751 3.384 152.843 3.408 152.891 3.456C152.939 3.504 152.963 3.592 152.963 3.72V9.792C152.963 9.92 152.939 10.008 152.891 10.056C152.843 10.104 152.751 10.128 152.615 10.128H151.799C151.663 10.128 151.571 10.104 151.523 10.056C151.475 10.008 151.451 9.92 151.451 9.792V3.72Z" fill="#EA83A8"/>
</svg>
