<svg width="16" height="18" viewBox="0 0 16 18" fill="none" xmlns="http://www.w3.org/2000/svg">
<path fill-rule="evenodd" clip-rule="evenodd" d="M0.5 1.70833C0.5 0.902918 1.15292 0.25 1.95833 0.25H6.54167C6.88685 0.25 7.16667 0.529822 7.16667 0.875C7.16667 1.22018 6.88685 1.5 6.54167 1.5H1.95833C1.84327 1.5 1.75 1.59327 1.75 1.70833V16.2917C1.75 16.4067 1.84327 16.5 1.95833 16.5H6.54167C6.88685 16.5 7.16667 16.7798 7.16667 17.125C7.16667 17.4702 6.88685 17.75 6.54167 17.75H1.95833C1.15292 17.75 0.5 17.0971 0.5 16.2917V1.70833ZM13.8386 9.625L11.0879 12.5285C10.8506 12.7791 10.8612 13.1747 11.1118 13.4121C11.3624 13.6494 11.758 13.6388 11.9954 13.3882L15.7454 9.42984C15.9738 9.18878 15.9738 8.81122 15.7454 8.57016L11.9954 4.61183C11.758 4.36124 11.3624 4.35055 11.1118 4.58795C10.8612 4.82534 10.8506 5.22093 11.0879 5.47151L13.8386 8.375H6.95833C6.61316 8.375 6.33333 8.65482 6.33333 9C6.33333 9.34518 6.61316 9.625 6.95833 9.625H13.8386Z" fill="black"/>
</svg>